<svg width="117" height="24" viewBox="0 0 117 24" fill="none" xmlns="http://www.w3.org/2000/svg">
<path d="M58.3805 22.1798C58.3305 22.1798 58.2505 22.1798 58.1105 22.0998C52.8205 18.9398 47.4205 14.0698 46.3205 8.38976C45.9405 6.24976 46.7505 5.84977 48.0905 5.35977C50.5105 4.47977 56.0705 2.75977 58.3805 2.75977C60.6905 2.75977 66.2505 4.46977 68.6705 5.35977C70.0105 5.83977 70.8205 6.23976 70.4405 8.38976C69.3405 14.0698 63.9405 18.9398 58.6505 22.0998C58.5205 22.1798 58.4405 22.1798 58.3805 22.1798Z" fill="black"/>
<path d="M66.2315 21.1402C70.4715 20.4402 73.6715 19.7702 79.7215 18.3302C79.9315 18.2802 79.9315 18.2202 79.6915 18.2002C77.0315 18.0402 74.7715 17.8802 73.1915 17.7402C72.8115 17.7102 72.7915 17.5802 72.9515 17.3702C73.3815 16.8302 73.8415 16.7302 74.9615 16.7302C76.0115 16.7302 78.6415 16.7602 81.3015 16.7802C86.5715 16.8102 91.7515 15.4702 98.2215 13.3302C98.3015 13.3002 98.2715 13.2502 98.1915 13.2502C89.1415 13.4602 78.1515 13.5702 76.3815 13.5702C76.1115 13.5702 76.1415 13.3802 76.3315 13.1702C76.7315 12.6902 77.1915 12.4502 78.6915 12.3402C80.7915 12.1802 98.6515 11.3202 101.582 11.2202C105.052 11.0902 107.172 10.5502 110.022 8.38023C110.852 7.76023 111.952 6.83023 112.952 5.84023C113.112 5.68023 113.112 5.57023 112.822 5.60023C107.392 6.08023 79.7515 8.65023 78.4615 8.81023C76.1015 9.10023 75.0215 9.75023 74.1315 11.1402C71.2015 15.6902 69.9115 17.9102 66.1015 20.9402C65.9315 21.0602 65.9315 21.1902 66.2315 21.1402ZM58.3815 22.1802C58.3315 22.1802 58.2515 22.1802 58.1115 22.1002C52.8215 18.9402 47.4215 14.0702 46.3215 8.39023C45.9415 6.25023 46.7515 5.85023 48.0915 5.36023C50.5115 4.48023 56.0715 2.76023 58.3815 2.76023C60.6915 2.76023 66.2515 4.47023 68.6715 5.36023C70.0115 5.84023 70.8215 6.24023 70.4415 8.39023C69.3415 14.0702 63.9415 18.9402 58.6515 22.1002C58.5215 22.1802 58.4415 22.1802 58.3815 22.1802ZM50.5415 21.1402C50.8415 21.1902 50.8415 21.0602 50.6715 20.9302C46.8615 17.9002 45.5715 15.6802 42.6415 11.1302C41.7515 9.74023 40.6815 9.09023 38.3115 8.80023C37.0215 8.64023 9.38154 6.07023 3.95154 5.59023C3.65154 5.56023 3.65154 5.67023 3.82154 5.83023C4.81154 6.82023 5.92154 7.76024 6.75154 8.37024C9.60154 10.5402 11.7215 11.0702 15.1915 11.2102C18.1215 11.3202 35.9815 12.1702 38.0815 12.3302C39.5815 12.4402 40.0415 12.6802 40.4415 13.1602C40.6315 13.3702 40.6515 13.5602 40.3915 13.5602C38.6215 13.5602 27.6315 13.4502 18.5815 13.2402C18.5015 13.2402 18.4715 13.2902 18.5515 13.3202C25.0215 15.4602 30.2115 16.8002 35.4715 16.7702C38.1315 16.7402 40.7615 16.7202 41.8115 16.7202C42.9415 16.7202 43.4015 16.8302 43.8215 17.3602C43.9815 17.5702 43.9515 17.7102 43.5815 17.7302C41.9915 17.8602 39.7415 18.0202 37.0815 18.1902C36.8415 18.2202 36.8415 18.2702 37.0515 18.3202C43.1015 19.7702 46.3015 20.4402 50.5415 21.1402ZM58.3815 23.8702C58.4615 23.8702 58.5915 23.8402 58.7015 23.7902C65.2015 20.5502 68.2415 17.5802 72.0515 11.4202C73.4715 9.06023 74.2815 7.86023 77.7515 7.35023C83.1815 6.57024 107.682 4.86023 112.512 4.19023C114.582 3.90023 115.142 3.57024 116.112 2.56024C116.272 2.40024 116.272 2.27023 115.982 2.29023C115.362 2.34023 90.9215 3.39023 76.2515 3.92023C72.6515 4.11023 71.5815 4.03023 68.5715 3.04023C64.1115 1.67023 60.0815 0.740234 58.3915 0.740234C56.7015 0.740234 52.6715 1.68023 48.2115 3.04023C45.2015 4.03023 44.1315 4.11023 40.5315 3.92023C25.8515 3.38023 1.40154 2.34023 0.79154 2.29023C0.49154 2.26023 0.49154 2.40024 0.66154 2.56024C1.63154 3.58024 2.19154 3.90023 4.26154 4.19023C9.10154 4.86023 33.6015 6.57024 39.0215 7.35023C42.4915 7.86023 43.2915 9.06023 44.7215 11.4202C48.5315 17.5802 51.5715 20.5502 58.0715 23.7902C58.1715 23.8402 58.3015 23.8702 58.3815 23.8702Z" fill="white"/>
<path d="M66.99 8.94063C66.61 8.74063 66.22 8.63063 66.22 8.29063C66.22 8.12063 66.38 7.98063 66.7 7.98063C67.03 7.98063 67.34 8.10063 67.61 8.21063L67.7 7.76063C67.44 7.67063 67.12 7.60063 66.76 7.60063C65.97 7.60063 65.54 7.95063 65.54 8.43063C65.54 8.90063 65.88 9.15063 66.35 9.37063C66.76 9.56063 67.11 9.68063 67.11 9.98063C67.11 10.2106 66.93 10.3506 66.58 10.3506C66.25 10.3506 65.91 10.2306 65.64 10.1206L65.59 10.6506C65.72 10.6906 66.22 10.7706 66.6 10.7706C67.23 10.7706 67.8 10.4606 67.8 9.91063C67.79 9.38063 67.39 9.15063 66.99 8.94063ZM54.45 8.05063L54.34 7.66063H52.17L52.1 7.84063L52.23 7.91063C52.32 7.95063 52.34 8.01063 52.34 8.11063V10.7006H54.44V10.3106H53.01V9.32063H54.24V8.94063H53.01V8.05063H54.45ZM62.62 8.94063C62.24 8.74063 61.85 8.63063 61.85 8.29063C61.85 8.12063 62.01 7.98063 62.33 7.98063C62.66 7.98063 62.97 8.10063 63.24 8.21063L63.33 7.76063C63.07 7.67063 62.75 7.60063 62.39 7.60063C61.6 7.60063 61.19 7.95063 61.19 8.43063C61.19 8.90063 61.51 9.15063 61.97 9.37063C62.38 9.56063 62.73 9.68063 62.73 9.98063C62.73 10.2106 62.55 10.3506 62.2 10.3506C61.87 10.3506 61.53 10.2306 61.26 10.1206L61.21 10.6506C61.34 10.6906 61.84 10.7706 62.22 10.7706C62.85 10.7706 63.42 10.4606 63.42 9.91063C63.42 9.38063 63.02 9.15063 62.62 8.94063ZM63.88 7.85063L64.01 7.92063C64.11 7.97063 64.13 8.02063 64.13 8.12063V10.7106H64.8V7.66063H63.95L63.88 7.85063ZM60.71 8.05063L60.6 7.66063H58.43L58.36 7.84063L58.49 7.91063C58.58 7.95063 58.6 8.01063 58.6 8.11063V10.7006H60.7V10.3106H59.27V9.32063H60.5V8.94063H59.27V8.05063H60.71ZM57.27 9.73063L55.63 7.66063H55.53H54.98L54.9 7.84063L55.03 7.91063C55.13 7.96063 55.15 8.01063 55.15 8.11063V10.7106H55.63V8.74063L57.2 10.7106H57.74V7.66063H57.26V9.73063H57.27ZM50.54 9.27063L50.84 9.39063C50.93 9.43063 50.96 9.47063 50.96 9.57063V10.2506C50.83 10.3206 50.66 10.3706 50.47 10.3706C49.89 10.3506 49.46 9.88063 49.46 9.20063C49.46 8.50063 49.84 7.99063 50.5 7.99063C50.66 7.99063 51.03 8.03063 51.4 8.33063L51.53 7.83063C51.08 7.64063 50.82 7.60063 50.48 7.58063C49.54 7.56063 48.75 8.08063 48.75 9.20063C48.75 10.2006 49.45 10.7706 50.37 10.7706C51.05 10.7706 51.46 10.5406 51.56 10.4606V9.08063H50.6L50.54 9.27063Z" fill="white"/>
</svg>
