<svg width="118" height="25" viewBox="0 0 118 25" fill="none" xmlns="http://www.w3.org/2000/svg">
<path d="M66.9097 21.3393C71.1897 20.6393 74.4097 19.9593 80.4997 18.5093C80.7197 18.4593 80.7197 18.3993 80.4697 18.3793C77.7897 18.2193 75.5097 18.0593 73.9197 17.9193C73.5397 17.8893 73.5097 17.7593 73.6797 17.5393C74.1097 16.9993 74.5697 16.8893 75.7097 16.8893C76.7697 16.8893 79.4197 16.9193 82.0997 16.9393C87.4097 16.9693 92.6297 15.6193 99.1597 13.4593C99.2397 13.4293 99.2097 13.3793 99.1297 13.3793C89.9997 13.5893 78.9297 13.6993 77.1397 13.6993C76.8697 13.6993 76.8997 13.5093 77.0897 13.2993C77.4997 12.8093 77.9597 12.5693 79.4697 12.4593C81.5797 12.2993 99.5897 11.4293 102.54 11.3293C106.03 11.1993 108.17 10.6593 111.04 8.4693C111.88 7.8493 112.99 6.8993 113.99 5.9093C114.15 5.7493 114.15 5.6393 113.85 5.6693C108.38 6.1593 80.5197 8.7493 79.2197 8.9093C76.8397 9.2093 75.7497 9.8493 74.8597 11.2593C71.9097 15.8493 70.6097 18.0893 66.7597 21.1393C66.6097 21.2593 66.6097 21.3893 66.9097 21.3393ZM58.9997 22.3893C58.9497 22.3893 58.8597 22.3893 58.7297 22.3093C53.3997 19.1293 47.9497 14.2093 46.8397 8.4893C46.4597 6.3293 47.2697 5.9293 48.6297 5.4393C51.0697 4.5493 56.6697 2.8193 58.9997 2.8193C61.3297 2.8193 66.9297 4.5493 69.3697 5.4393C70.7197 5.9293 71.5397 6.3293 71.1597 8.4893C70.0497 14.2093 64.6097 19.1193 59.2697 22.3093C59.1397 22.3893 59.0497 22.3893 58.9997 22.3893ZM51.0897 21.3393C51.3897 21.3893 51.3897 21.2593 51.2297 21.1193C47.3897 18.0693 46.0897 15.8293 43.1297 11.2393C42.2397 9.8393 41.1497 9.1893 38.7697 8.8893C37.4697 8.7293 9.60968 6.1393 4.13968 5.6493C3.83968 5.6193 3.83968 5.7293 3.99968 5.8893C4.99968 6.8893 6.10968 7.8293 6.94968 8.4493C9.81968 10.6393 11.9597 11.1793 15.4497 11.3093C18.3997 11.4193 36.4097 12.2793 38.5197 12.4393C40.0397 12.5493 40.4997 12.7893 40.8997 13.2793C41.0897 13.4993 41.1197 13.6793 40.8497 13.6793C39.0597 13.6793 27.9897 13.5693 18.8597 13.3593C18.7797 13.3593 18.7497 13.4093 18.8297 13.4393C25.3597 15.5993 30.5797 16.9493 35.8897 16.9193C38.5697 16.8893 41.2197 16.8693 42.2797 16.8693C43.4197 16.8693 43.8797 16.9793 44.3097 17.5193C44.4697 17.7393 44.4497 17.8693 44.0697 17.8993C42.4697 18.0293 40.1997 18.1993 37.5197 18.3593C37.2797 18.3893 37.2797 18.4393 37.4897 18.4893C43.5897 19.9593 46.8197 20.6393 51.0897 21.3393ZM58.9997 24.0893C59.0797 24.0893 59.2197 24.0593 59.3197 24.0093C65.8697 20.7393 68.9297 17.7493 72.7797 11.5393C74.2197 9.1593 75.0297 7.9493 78.5197 7.4393C83.9897 6.6593 108.68 4.9293 113.56 4.2593C115.64 3.9593 116.21 3.6393 117.19 2.6093C117.35 2.4493 117.35 2.30929 117.05 2.33929C116.43 2.38929 91.7897 3.4493 76.9997 3.9893C73.3697 4.1793 72.2897 4.0993 69.2597 3.0993C64.7697 1.7193 60.6997 0.779297 58.9997 0.779297C57.2997 0.779297 53.2297 1.7193 48.7397 3.0993C45.7097 4.0993 44.6197 4.1793 40.9997 3.9893C26.2197 3.4493 1.57968 2.39929 0.949684 2.33929C0.649684 2.30929 0.649683 2.4493 0.809683 2.6093C1.77968 3.6393 2.34968 3.9593 4.43968 4.2593C9.30968 4.9293 34.0097 6.6593 39.4797 7.4393C42.9697 7.9493 43.7897 9.1693 45.2197 11.5393C49.0597 17.7493 52.1197 20.7393 58.6797 24.0093C58.7797 24.0593 58.9197 24.0893 58.9997 24.0893Z" fill="black"/>
<path d="M67.6769 9.04C67.2969 8.84 66.8969 8.72999 66.8969 8.37999C66.8969 8.20999 67.0569 8.07 67.3869 8.07C67.7169 8.07 68.0269 8.18999 68.3069 8.30999L68.3969 7.84999C68.1369 7.75999 67.8069 7.69 67.4469 7.69C66.6569 7.69 66.2169 8.03999 66.2169 8.52999C66.2169 8.99999 66.5569 9.26 67.0369 9.48C67.4469 9.67 67.7969 9.79999 67.7969 10.1C67.7969 10.33 67.6169 10.48 67.2669 10.48C66.9369 10.48 66.5869 10.36 66.3169 10.24L66.2669 10.77C66.3969 10.81 66.9069 10.9 67.2869 10.9C67.9269 10.9 68.4969 10.59 68.4969 10.03C68.4769 9.48999 68.0769 9.25 67.6769 9.04ZM55.0269 8.15L54.9169 7.76H52.7269L52.6569 7.94L52.7969 8.01C52.8869 8.05 52.9069 8.11 52.9069 8.22V10.84H55.0269V10.44H53.5869V9.44H54.8269V9.05999H53.5869V8.16H55.0269V8.15ZM63.2669 9.04C62.8869 8.84 62.4869 8.72999 62.4869 8.37999C62.4869 8.20999 62.6469 8.07 62.9769 8.07C63.3069 8.07 63.6169 8.18999 63.8969 8.30999L63.9869 7.84999C63.7269 7.75999 63.3969 7.69 63.0369 7.69C62.2469 7.69 61.8369 8.03999 61.8369 8.52999C61.8369 8.99999 62.1569 9.26 62.6269 9.48C63.0369 9.67 63.3869 9.79999 63.3869 10.1C63.3869 10.33 63.2069 10.48 62.8569 10.48C62.5269 10.48 62.1769 10.36 61.9069 10.24L61.8569 10.77C61.9869 10.81 62.4969 10.9 62.8769 10.9C63.5169 10.9 64.0869 10.59 64.0869 10.03C64.0669 9.48999 63.6669 9.25 63.2669 9.04ZM64.5369 7.94L64.6769 8.01C64.7769 8.06 64.7969 8.11 64.7969 8.22V10.84H65.4769V7.76999H64.6169L64.5369 7.94ZM61.3369 8.15L61.2269 7.76H59.0369L58.9669 7.94L59.1069 8.01C59.1969 8.05 59.2169 8.11 59.2169 8.22V10.84H61.3369V10.44H59.8969V9.44H61.1369V9.05999H59.8969V8.16H61.3369V8.15ZM57.8769 9.83999L56.2269 7.76H56.1269H55.5769L55.4969 7.94L55.6369 8.01C55.7369 8.06 55.7569 8.10999 55.7569 8.20999V10.83H56.2469V8.83999L57.8269 10.83H58.3669V7.76H57.8769V9.83999ZM51.0869 9.37L51.3869 9.5C51.4769 9.54 51.5069 9.58 51.5069 9.68V10.37C51.3769 10.44 51.2069 10.5 51.0169 10.49C50.4269 10.47 49.9969 9.99999 49.9969 9.30999C49.9969 8.59999 50.3869 8.08999 51.0469 8.08999C51.2069 8.08999 51.5769 8.13 51.9569 8.44L52.0969 7.94C51.6469 7.75 51.3769 7.7 51.0369 7.69C50.0869 7.67 49.2969 8.2 49.2969 9.33C49.2969 10.34 50.0069 10.91 50.9369 10.91C51.6269 10.91 52.0369 10.68 52.1369 10.6V9.19999H51.1669L51.0869 9.37Z" fill="black"/>
</svg>
