<?xml version="1.0" encoding="UTF-8"?>
<svg width="26px" height="17px" viewBox="0 0 26 17" version="1.1" xmlns="http://www.w3.org/2000/svg" xmlns:xlink="http://www.w3.org/1999/xlink">
    <title>Icon/Build your own</title>
    <g id="1920-Client-Approved" stroke="none" stroke-width="1" fill="none" fill-rule="evenodd">
        <g id="OPT1_NAV_SHOPPING" transform="translate(-281.000000, -257.000000)" fill="#141414">
            <g id="Tex" transform="translate(280.000000, 70.000000)">
                <g id="BUILD-YOUR-OWON" transform="translate(0.000000, 163.000000)">
                    <g id="Icon/Build-your-own" transform="translate(1.000000, 24.000000)">
                        <path d="M20.3879904,0.60225 C20.6409904,0.64125 20.8659904,0.78325 21.0089904,0.99125 L21.0659904,1.08525 L23.2559904,5.10425 L23.7939904,3.99025 C23.8589904,3.84825 23.9869904,3.74925 24.1359904,3.72025 L24.2119904,3.71125 L25.9939904,3.71125 L25.9939904,4.64025 L24.5089904,4.64025 L24.0819904,5.50325 L25.4929904,6.20825 C25.8029904,6.36625 25.9949904,6.68125 26,7.02225 L25.9939904,7.13625 L25.9939904,15.79625 C25.9619904,16.25525 25.6219904,16.62825 25.1789904,16.71025 L25.0659904,16.725269 L21.9939904,16.725269 C21.6809904,16.72725 21.3889904,16.57125 21.2179904,16.31525 L21.1579904,16.21425 L20.4899904,14.86825 L5.63899036,14.86825 L4.97099036,16.21425 C4.83099036,16.49225 4.56299036,16.67825 4.26099036,16.71725 L4.14499036,16.725269 L0.932990356,16.725269 C0.485990356,16.72625 0.106990356,16.40925 0.0209903562,15.98025 L0.00499035617,15.87125 L0.00499035617,7.13625 C-0.0310096438,6.78925 0.129990356,6.45525 0.415990356,6.26625 L0.514990356,6.20825 L2.05599036,5.47525 L1.63799036,4.63025 L0.00499035617,4.63025 L0.00499035617,3.70225 L1.88899036,3.70225 C2.03699036,3.70425 2.17299036,3.77425 2.26099036,3.88825 L2.30699036,3.96225 L2.83599036,5.04825 L4.84999036,1.10325 C4.98499036,0.83525 5.24099036,0.64825 5.53699036,0.60225 C10.4549904,-0.20075 15.4699904,-0.20075 20.3879904,0.60225 L20.3879904,0.60225 Z M6.44599036,1.43725 L5.72299036,1.54925 L3.68099036,5.54025 L3.54099036,5.81825 L3.27199036,5.94825 L0.932990356,7.06225 L0.932990356,7.44325 L5.57399036,7.44325 L5.57399036,8.37125 L0.932990356,8.37125 L0.932990356,15.79625 L4.13499036,15.79625 L4.81299036,14.45125 L5.06399036,13.94025 L21.0839904,13.94025 L21.3349904,14.45125 L22.0029904,15.79625 L25.0659904,15.79625 L25.0659904,8.37125 L20.4249904,8.37125 L20.4249904,7.44325 L25.0659904,7.44325 L25.0659904,7.06225 L22.8479904,5.97625 L22.5879904,5.84625 L22.4489904,5.59625 L20.2489904,1.54925 C15.6789904,0.80225 11.0229904,0.76525 6.44599036,1.43725 L6.44599036,1.43725 Z M18.8659904,7.66425 C19.0689904,7.84225 19.1839904,8.10125 19.1820651,8.37125 C19.1829904,8.44925 19.1739904,8.52825 19.1529904,8.60325 L19.1159904,8.71425 L18.1879904,10.91425 C17.9269904,11.57125 17.3169904,12.01825 16.6209904,12.07725 L16.4709904,12.08425 L9.69499036,12.08425 C8.98899036,12.08125 8.34899036,11.67825 8.03899036,11.05225 L7.97799036,10.91425 L7.04999036,8.71425 C6.85899036,8.24025 7.08699036,7.70125 7.55999036,7.50825 C7.63599036,7.47825 7.71399036,7.45925 7.79299036,7.44925 L7.91299036,7.44325 L18.1229904,7.44325 C18.3909904,7.40525 18.6619904,7.48625 18.8659904,7.66425 L18.8659904,7.66425 Z M18.0859904,8.37125 L7.87599036,8.37125 L8.75799036,10.57125 C8.88399036,10.88625 9.16999036,11.10525 9.49999036,11.14825 L9.61199036,11.15625 L16.3869904,11.15625 C16.7269904,11.15225 17.0339904,10.96525 17.1939904,10.67225 L17.2409904,10.57125 L18.0859904,8.37125 Z" id="Fill-1"></path>
                    </g>
                </g>
            </g>
        </g>
    </g>
</svg>