<?xml version="1.0" encoding="UTF-8"?>
<svg width="23px" height="27px" viewBox="0 0 23 27" version="1.1" xmlns="http://www.w3.org/2000/svg" xmlns:xlink="http://www.w3.org/1999/xlink">
    <title>Icon/Estimate Trade-in Value</title>
    <g id="1920-Client-Approved" stroke="none" stroke-width="1" fill="none" fill-rule="evenodd">
        <g id="OPT1_NAV_SHOPPING" transform="translate(-1263.000000, -252.000000)" fill="#141414">
            <g id="Tex" transform="translate(280.000000, 70.000000)">
                <g id="ESTIMATE-TRADE-IN-VALUE" transform="translate(980.000000, 163.000000)">
                    <g id="Icon/Estimate-Trade-in-Value" transform="translate(3.082179, 19.002554)">
                        <path d="M4.4408921e-16,26.0663973 L22.1978501,26.0663973 L22.1978501,-3.55271368e-15 L4.4408921e-16,-3.55271368e-15 L4.4408921e-16,26.0663973 Z M1.02225589,25.0678537 L21.1745668,25.0678537 L21.1745668,0.997540972 L1.02225589,0.997540972 L1.02225589,25.0678537 Z" id="Fill-1"></path>
                        <path d="M4.90374611,7.05597323 L17.2930766,7.05597323 L17.2930766,4.5836757 L4.90374611,4.5836757 L4.90374611,7.05597323 Z M3.88046282,8.05451676 L18.3163599,8.05451676 L18.3163599,3.58613473 L3.88046282,3.58613473 L3.88046282,8.05451676 Z" id="Fill-2"></path>
                        <polygon id="Fill-3" points="15.1232229 13.710925 17.9814298 13.710925 17.9814298 11.0601729 15.1232229 11.0601729"></polygon>
                        <polygon id="Fill-4" points="15.1232229 17.7622446 17.9814298 17.7622446 17.9814298 15.11049 15.1232229 15.11049"></polygon>
                        <polygon id="Fill-5" points="15.1232229 21.8125617 17.9814298 21.8125617 17.9814298 19.1608071 15.1232229 19.1608071"></polygon>
                        <polygon id="Fill-6" points="9.67701332 13.710925 12.5331655 13.710925 12.5331655 11.0601729 9.67701332 11.0601729"></polygon>
                        <polygon id="Fill-7" points="9.67701332 17.7622446 12.5331655 17.7622446 12.5331655 15.11049 9.67701332 15.11049"></polygon>
                        <polygon id="Fill-8" points="9.67701332 21.8125617 12.5331655 21.8125617 12.5331655 19.1608071 9.67701332 19.1608071"></polygon>
                        <polygon id="Fill-9" points="4.21744768 13.710925 7.07565461 13.710925 7.07565461 11.0601729 4.21744768 11.0601729"></polygon>
                        <polygon id="Fill-10" points="4.21744768 17.7622446 7.07565461 17.7622446 7.07565461 15.11049 4.21744768 15.11049"></polygon>
                        <polygon id="Fill-11" points="4.21744768 21.8125617 7.07565461 21.8125617 7.07565461 19.1608071 4.21744768 19.1608071"></polygon>
                    </g>
                </g>
            </g>
        </g>
    </g>
</svg>