<?xml version="1.0" encoding="UTF-8"?>
<svg width="21px" height="28px" viewBox="0 0 21 28" version="1.1" xmlns="http://www.w3.org/2000/svg" xmlns:xlink="http://www.w3.org/1999/xlink">
    <title>Genesis Certified</title>
    <g id="1920-Client-Approved" stroke="none" stroke-width="1" fill="none" fill-rule="evenodd">
        <g id="OPT1_NAV_SHOPPING" transform="translate(-703.000000, -302.000000)" stroke="#000000" stroke-width="0.967">
            <g id="Tex" transform="translate(280.000000, 70.000000)">
                <g id="GENESIS-CERTIFIED" transform="translate(419.000000, 214.000000)">
                    <g id="Group" transform="translate(5.000000, 19.000000)">
                        <polyline id="Stroke-1" stroke-linejoin="round" points="2.7574 18.922 2.4464 25.881 9.3154 23.388 16.4794 26 15.9894 18.931"></polyline>
                        <path d="M0,9.463 C0,4.237 4.237,0 9.463,0 C14.69,0 18.927,4.237 18.927,9.463 C18.927,14.689 14.69,18.926 9.463,18.926 C4.237,18.926 0,14.689 0,9.463 Z" id="Stroke-3"></path>
                        <polygon id="Stroke-5" points="7.9549 7.806 9.4629 4.746 10.9719 7.806 14.3469 8.296 11.9029 10.674 12.4799 14.036 9.4629 12.449 6.4469 14.036 7.0239 10.674 4.5799 8.296"></polygon>
                    </g>
                </g>
            </g>
        </g>
    </g>
</svg>