<?xml version="1.0" encoding="UTF-8"?>
<svg width="24px" height="26px" viewBox="0 0 24 26" version="1.1" xmlns="http://www.w3.org/2000/svg" xmlns:xlink="http://www.w3.org/1999/xlink">
    <title>icon/RAQ</title>
    <g id="1920-Client-Approved" stroke="none" stroke-width="1" fill="none" fill-rule="evenodd">
        <g id="OPT1_NAV_SHOPPING" transform="translate(-282.000000, -303.000000)" stroke="#141414">
            <g id="Tex" transform="translate(280.000000, 70.000000)">
                <g id="RAQ" transform="translate(0.000000, 214.000000)">
                    <g id="icon/RAQ" transform="translate(3.000000, 20.000000)">
                        <path d="M14.082,23.853 L1.118,23.853 C1.043,23.853 0.647,23.846 0.327,23.511 C0.124,23.3 0,23.008 0,22.686 L0,1.168 C0,0.522 0.5,0 1.118,0 L16.571,0 C17.19,0 17.691,0.522 17.691,1.168 L17.691,17.484" id="Stroke-5"></path>
                        <polyline id="Stroke-7" points="14.5232 19.9007 17.2822 23.3617 22.0172 17.4207"></polyline>
                        <line x1="2.4459" y1="5.8106" x2="13.7609" y2="5.8106" id="Stroke-1"></line>
                        <line x1="2.3761" y1="17.6683" x2="9.6701" y2="17.6683" id="Stroke-2"></line>
                        <line x1="2.4459" y1="9.7861" x2="13.7609" y2="9.7861" id="Stroke-3"></line>
                        <line x1="2.4459" y1="13.7615" x2="13.7609" y2="13.7615" id="Stroke-4"></line>
                    </g>
                </g>
            </g>
        </g>
    </g>
</svg>