<?xml version="1.0" encoding="UTF-8"?>
<svg width="22px" height="25px" viewBox="0 0 22 25" version="1.1" xmlns="http://www.w3.org/2000/svg" xmlns:xlink="http://www.w3.org/1999/xlink">
    <title>Icon/Search Inventory Icon</title>
    <g id="1920-Client-Approved" stroke="none" stroke-width="1" fill="none" fill-rule="evenodd">
        <g id="OPT1_NAV_SHOPPING" transform="translate(-283.000000, -202.000000)" fill="#141414">
            <g id="Tex" transform="translate(280.000000, 70.000000)">
                <g id="SEARCH-INVENTORY" transform="translate(0.000000, 112.000000)">
                    <g id="Icon/Search-Inventory-Icon" transform="translate(3.000000, 20.000000)">
                        <path d="M15.5166302,3.14244515 C18.5116302,6.70244515 18.2076302,11.9814451 14.8246302,15.1744451 L21.8106302,23.4964451 L21.0156302,24.1674451 L14.0286302,15.8364451 C10.1896302,18.6934451 4.76963018,17.9514451 1.83963018,14.1674451 C-1.09036982,10.3824451 -0.453369825,4.94844515 3.27263018,1.94544515 C6.99863018,-1.05855485 12.4426302,-0.525554851 15.5166302,3.14244515 Z M3.81363018,2.84544515 C0.533630175,5.59644515 0.103630175,10.4854451 2.85263018,13.7664451 C5.60163018,17.0474451 10.4896302,17.4784451 13.7706302,14.7304451 L13.7806302,14.7714451 C15.3686302,13.4484451 16.3616302,11.5454451 16.5406302,9.48544515 C16.7186302,7.42644515 16.0676302,5.38044515 14.7316302,3.80344515 C11.9806302,0.524445149 7.09263018,0.095445149 3.81363018,2.84544515 Z" id="Fill-1"></path>
                    </g>
                </g>
            </g>
        </g>
    </g>
</svg>