<?xml version="1.0" encoding="UTF-8"?>
<svg width="28px" height="28px" viewBox="0 0 28 28" version="1.1" xmlns="http://www.w3.org/2000/svg" xmlns:xlink="http://www.w3.org/1999/xlink">
    <title>Icon/Shop Parts &amp; Accesories</title>
    <g id="1920-Client-Approved" stroke="none" stroke-width="1" fill="none" fill-rule="evenodd">
        <g id="OPT1_NAV_SHOPPING" transform="translate(-699.000000, -251.000000)" stroke="#000000">
            <g id="Tex" transform="translate(280.000000, 70.000000)">
                <g id="SHOP-PARTS-&amp;-ACCESSORIES" transform="translate(419.000000, 163.000000)">
                    <g id="Icon/Shop-Parts-&amp;-Accesories" transform="translate(1.000000, 19.000000)">
                        <path d="M11.2870219,12.999938 C11.2870219,12.053938 12.0540219,11.286938 13.0000219,11.286938 C13.9470219,11.286938 14.7140219,12.053938 14.7140219,12.999938 C14.7140219,13.945938 13.9470219,14.712938 13.0000219,14.712938 C12.0540219,14.712938 11.2870219,13.945938 11.2870219,12.999938 Z" id="Stroke-1" stroke-width="0.481"></path>
                        <path d="M11.3046219,0.108037962 C5.51662195,0.844037962 0.842621948,5.51903796 0.107621948,11.307038 C-0.970378052,19.799038 6.20462195,26.972038 14.6966219,25.892038 C20.4846219,25.155038 25.1576219,20.481038 25.8926219,14.692038 C26.9706219,6.20003796 19.7966219,-0.971962038 11.3046219,0.108037962 Z" id="Stroke-3" stroke-width="0.769"></path>
                        <path d="M11.6528219,9.82323796 L12.2098219,5.18523796 L11.5648219,5.30523796 C9.29282195,5.72923796 7.33282195,7.13123796 6.18682195,9.15123796 L5.88482195,9.68523796 L10.2558219,10.924238 L11.6528219,9.82323796 Z" id="Stroke-5" stroke-width="0.769"></path>
                        <path d="M15.6970219,10.863338 L20.1240219,9.70033796 L19.8160219,9.15633796 C18.6630219,7.11933796 16.6880219,5.71233796 14.3950219,5.29833796 L13.7530219,5.18233796 L14.3140219,9.81033796 L15.6970219,10.863338 Z" id="Stroke-7" stroke-width="0.769"></path>
                        <path d="M9.64132195,13.576338 L5.36132195,11.146338 L5.25832195,11.841338 C5.20132195,12.227338 5.17232195,12.616338 5.17232195,13.000338 C5.17232195,14.953338 5.89932195,16.826338 7.21832195,18.272338 L7.65132195,18.746338 L10.0853219,14.753338 L9.64132195,13.576338 Z" id="Stroke-9" stroke-width="0.769"></path>
                        <path d="M12.3572219,16.322338 L8.94122195,19.725338 L9.38022195,19.941338 C10.3022219,20.395338 11.2952219,20.716338 12.3202219,20.800338 C13.7652219,20.919338 15.1552219,20.660338 16.4332219,20.034338 L17.0272219,19.743338 L13.7142219,16.307338 L12.3572219,16.322338 Z" id="Stroke-11" stroke-width="0.769"></path>
                        <path d="M20.6416219,11.165238 L16.3796219,13.476238 L15.9476219,14.697238 L18.3216219,18.773238 L18.7636219,18.292238 C20.0956219,16.843238 20.8286219,14.963238 20.8286219,13.000238 C20.8286219,12.615238 20.7996219,12.227238 20.7436219,11.846238 L20.6416219,11.165238 Z" id="Stroke-13" stroke-width="0.769"></path>
                    </g>
                </g>
            </g>
        </g>
    </g>
</svg>