<?xml version="1.0" encoding="UTF-8"?>
<svg width="26px" height="26px" viewBox="0 0 26 26" version="1.1" xmlns="http://www.w3.org/2000/svg" xmlns:xlink="http://www.w3.org/1999/xlink">
    <title>Special Offers</title>
    <g id="1920-Client-Approved" stroke="none" stroke-width="1" fill="none" fill-rule="evenodd">
        <g id="OPT1_NAV_SHOPPING" transform="translate(-1262.000000, -201.000000)" fill="#141414">
            <g id="Tex" transform="translate(280.000000, 70.000000)">
                <g id="SPECIAL-OFFERS" transform="translate(981.000000, 112.000000)">
                    <g id="Special-Offers" transform="translate(1.000000, 19.000000)">
                        <path d="M5.236,3.968 C4.897,3.968 4.58,4.1 4.34,4.339 C3.847,4.834 3.847,5.637 4.34,6.131 C4.819,6.608 5.654,6.608 6.132,6.131 C6.626,5.637 6.626,4.834 6.132,4.339 C5.893,4.1 5.575,3.968 5.236,3.968 L5.236,3.968 Z M5.236,7.458 C4.642,7.458 4.084,7.226 3.665,6.806 C2.799,5.941 2.799,4.532 3.664,3.664 C4.504,2.824 5.969,2.824 6.808,3.664 C7.674,4.532 7.674,5.941 6.808,6.806 C6.388,7.226 5.83,7.458 5.236,7.458 L5.236,7.458 Z M0.956,10.848 L14.74,24.15 L24.637,14.254 L10.857,0.955 L0.956,0.955 L0.956,10.848 Z M14.752,25.49 L0,11.253 L0,0 L11.244,0 L26,14.241 L14.752,25.49 Z" id="Fill-1"></path>
                    </g>
                </g>
            </g>
        </g>
    </g>
</svg>